<svg viewBox="0 0 29 16" fill="none" xmlns="http://www.w3.org/2000/svg">
   <path
      d="M20.1288 1.01129C20.0351 1.10425 19.9607 1.21485 19.91 1.33671C19.8592 1.45857 19.833 1.58928 19.833 1.72129C19.833 1.8533 19.8592 1.98401 19.91 2.10587C19.9607 2.22773 20.0351 2.33833 20.1288 2.43129L24.7288 7.03129H1.18884C0.923626 7.03129 0.669272 7.13665 0.481736 7.32418C0.2942 7.51172 0.188843 7.76607 0.188843 8.03129C0.188843 8.29651 0.2942 8.55086 0.481736 8.7384C0.669272 8.92593 0.923626 9.03129 1.18884 9.03129H24.7088L20.1288 13.6013C19.9426 13.7887 19.8381 14.0421 19.8381 14.3063C19.8381 14.5705 19.9426 14.8239 20.1288 15.0113C20.3162 15.1975 20.5697 15.3021 20.8338 15.3021C21.098 15.3021 21.3515 15.1975 21.5388 15.0113L27.8988 8.65129C27.9844 8.56916 28.0526 8.47057 28.0991 8.36145C28.1456 8.25232 28.1696 8.13492 28.1696 8.01629C28.1696 7.89766 28.1456 7.78026 28.0991 7.67113C28.0526 7.56201 27.9844 7.46342 27.8988 7.38129L21.5488 1.01129C21.4559 0.917562 21.3453 0.843168 21.2234 0.792399C21.1016 0.741631 20.9709 0.715492 20.8388 0.715492C20.7068 0.715492 20.5761 0.741631 20.4543 0.792399C20.3324 0.843168 20.2218 0.917562 20.1288 1.01129Z" />
</svg>