<svg viewBox="0 0 29 16" fill="none" xmlns="http://www.w3.org/2000/svg">
<path d="M8.2486 15.0063C8.34233 14.9133 8.41672 14.8027 8.46749 14.6809C8.51826 14.559 8.5444 14.4283 8.5444 14.2963C8.5444 14.1643 8.51826 14.0336 8.46749 13.9117C8.41672 13.7898 8.34233 13.6792 8.2486 13.5863L3.6486 8.98628H27.1886C27.4538 8.98628 27.7082 8.88092 27.8957 8.69339C28.0832 8.50585 28.1886 8.2515 28.1886 7.98628C28.1886 7.72106 28.0832 7.46671 27.8957 7.27917C27.7082 7.09164 27.4538 6.98628 27.1886 6.98628H3.6686L8.2486 2.41628C8.43485 2.22892 8.53939 1.97547 8.53939 1.71128C8.53939 1.44709 8.43485 1.19364 8.2486 1.00628C8.06124 0.82003 7.80778 0.715488 7.5436 0.715488C7.27941 0.715488 7.02596 0.82003 6.8386 1.00628L0.478599 7.36628C0.392997 7.44841 0.324886 7.547 0.278356 7.65612C0.231827 7.76525 0.207842 7.88265 0.207842 8.00128C0.207842 8.11991 0.231827 8.23731 0.278356 8.34644C0.324886 8.45556 0.392997 8.55415 0.478599 8.63628L6.8286 15.0063C6.92156 15.1 7.03216 15.1744 7.15402 15.2252C7.27588 15.2759 7.40659 15.3021 7.5386 15.3021C7.67061 15.3021 7.80132 15.2759 7.92318 15.2252C8.04503 15.1744 8.15564 15.1 8.2486 15.0063Z" fill="white"/>
</svg>
