<svg
         viewBox="0 0 17 22"
         fill="none"
         xmlns="http://www.w3.org/2000/svg"
      >
         <path
            d="M1.7715 3.06543C1.7896 3.54479 2.19853 3.91667 2.67799 3.91667H3.1875C3.28143 3.91667 3.37151 3.95398 3.43793 4.0204C3.50435 4.08682 3.54167 4.1769 3.54167 4.27083V10.3382C3.54167 10.4023 3.55907 10.4652 3.59201 10.5202C3.62496 10.5752 3.67221 10.6203 3.72873 10.6505C3.78525 10.6807 3.84892 10.6951 3.91295 10.692C3.97698 10.6889 4.03897 10.6685 4.09231 10.6329L5.27376 9.84528C5.39012 9.76772 5.52683 9.72632 5.66667 9.72632C5.80651 9.72632 5.94322 9.76772 6.05957 9.84528L7.24103 10.6329C7.29436 10.6685 7.35635 10.6889 7.42038 10.692C7.48441 10.6951 7.54808 10.6807 7.6046 10.6505C7.66113 10.6203 7.70838 10.5752 7.74132 10.5202C7.77427 10.4652 7.79167 10.4023 7.79167 10.3382V4.27083C7.79167 4.1769 7.82898 4.08682 7.8954 4.0204C7.96182 3.95398 8.0519 3.91667 8.14583 3.91667H16.2917C16.4795 3.91667 16.6597 3.99129 16.7925 4.12413C16.9254 4.25697 17 4.43714 17 4.625V20.9167C17 21.1045 16.9254 21.2847 16.7925 21.4175C16.6597 21.5504 16.4795 21.625 16.2917 21.625H2.65625C1.95177 21.625 1.27614 21.3451 0.777998 20.847C0.279854 20.3489 0 19.6732 0 18.9687V3.03125C0 3.02704 0.000486976 3.02297 0.000619789 3.01881C0.00503691 2.32822 0.282522 1.66743 0.772482 1.18073C1.28216 0.668176 1.97416 0.378455 2.69698 0.375H16.2917C16.4795 0.375 16.6597 0.449628 16.7925 0.582466C16.9254 0.715304 17 0.895472 17 1.08333V1.4375C17 1.62536 16.9254 1.80553 16.7925 1.93837C16.6597 2.07121 16.4795 2.14583 16.2917 2.14583H2.65625C2.53714 2.14596 2.41927 2.1701 2.30969 2.2168C2.20012 2.26351 2.10108 2.33182 2.0185 2.41765C1.93591 2.50349 1.87147 2.60509 1.82904 2.71639C1.7866 2.82769 1.76703 2.9464 1.7715 3.06543Z"
            fill="url(#paint0_linear_166_283)"
         />
         <defs>
            <linearGradient
               id="paint0_linear_166_283"
               x1="-7.07688e-07"
               y1="11"
               x2="13.769"
               y2="17.6699"
               gradient-units="userSpaceOnUse"
            >
               <stop offset="0.5" stop-color="#B14BF4" />
               <stop offset="1" stop-color="#C82CCB" />
            </linearGradient>
         </defs>
      </svg>
