<svg viewBox="0 0 18 18" fill="none" stroke-width="0" xmlns="http://www.w3.org/2000/svg">
<path d="M0.986336 17.0653C0.451007 16.53 0.451007 15.662 0.986336 15.1267L15.2027 0.910287C15.7381 0.374957 16.606 0.374956 17.1413 0.910287C17.6767 1.44562 17.6767 2.31356 17.1413 2.84889L2.92493 17.0653C2.38961 17.6006 1.52167 17.6006 0.986336 17.0653Z"/>
<path d="M1.02835 0.952269C1.56368 0.416939 2.43162 0.416939 2.96695 0.952269L17.1833 15.1687C17.7187 15.704 17.7187 16.572 17.1833 17.1073C16.648 17.6426 15.7801 17.6426 15.2447 17.1073L1.02835 2.89087C0.493023 2.35554 0.493023 1.4876 1.02835 0.952269Z"/>
</svg>
