<?xml version="1.0" ?>
<svg viewBox="0 0 512 512" xmlns="http://www.w3.org/2000/svg">
   <title />
   <g data-name="1" id="_1">
      <path
         d="M230,455.73A176,176,0,0,1,54.13,279.86C54.14,182.89,133,104,230,104a15,15,0,0,1,15,15V264.86H390.87a15,15,0,0,1,15,15C405.87,376.83,327,455.73,230,455.73Zm-15-321c-73.41,7.53-130.86,69.73-130.87,145.1A146,146,0,0,0,230,425.73c75.37,0,137.57-57.45,145.1-130.87H230a15,15,0,0,1-15-15Z" />
      <path
         d="M441.13,248.63H276.23a15,15,0,0,1-15-15V68.73a15,15,0,0,1,15-15c99.2,0,179.9,80.71,179.9,179.9A15,15,0,0,1,441.13,248.63Zm-149.9-30H425.39A150.16,150.16,0,0,0,291.23,84.48Z" />
   </g>
</svg>