<svg width="26" height="23" viewBox="0 0 26 23" fill="none" xmlns="http://www.w3.org/2000/svg">
<path d="M18.7778 8.23186e-08C17.6566 8.23186e-08 16.5507 0.259791 15.5479 0.7588C14.5451 1.25781 13.6727 1.98233 13 2.87498C12.0905 1.66817 10.8225 0.776724 9.37566 0.326932C7.92879 -0.12286 6.37639 -0.1082 4.93835 0.368837C3.50032 0.845873 2.24957 1.7611 1.36325 2.98488C0.476936 4.20865 0 5.67894 0 7.18746C0 15.8004 12.025 22.5926 12.5306 22.8801C12.6738 22.9602 12.8357 23.0015 13 22.9999C13.1645 23.0027 13.3266 22.9613 13.4694 22.8801C15.6839 21.5917 17.7609 20.0826 19.6685 18.3759C23.8694 14.6145 26 10.8531 26 7.18746C26 5.28123 25.2391 3.45307 23.8847 2.10516C22.5302 0.757248 20.6932 8.23186e-08 18.7778 8.23186e-08Z" />
</svg>
