<svg viewBox="0 0 30 27" fill="none" xmlns="http://www.w3.org/2000/svg">
   <path
      d="M14.6007 3.61821L15 4.14806L15.3993 3.61821C16.1287 2.6503 17.0748 1.86449 18.1626 1.32318C19.2505 0.781873 20.4502 0.5 21.6667 0.5C23.745 0.5 25.7377 1.32165 27.2065 2.78343C28.6753 4.24513 29.5 6.22711 29.5 8.29322C29.5 12.3188 27.1592 16.5341 22.3611 20.8304C20.1859 22.7764 17.8176 24.4973 15.2926 25.9665C15.2062 26.0152 15.1081 26.0401 15.0085 26.0384L15.0085 26.0382L14.995 26.0383C14.893 26.0394 14.7925 26.0138 14.7037 25.9644C14.7033 25.9642 14.7029 25.964 14.7024 25.9637L14.6965 25.9603C14.355 25.7663 10.8143 23.7542 7.34808 20.5803C3.82637 17.3555 0.5 13.039 0.5 8.29322C0.5 6.65814 1.01694 5.06427 1.97793 3.73737C2.93895 2.41044 4.29544 1.41768 5.85553 0.90015C7.41564 0.382616 9.09992 0.366707 10.6696 0.85469C12.2393 1.34267 13.6145 2.30965 14.6007 3.61821Z"
   />
</svg>