<svg width="21" height="20" viewBox="0 0 21 20" fill="none" xmlns="http://www.w3.org/2000/svg">
<path d="M10.4042 20.0088C7.65733 20.0088 5.02297 18.9176 3.08064 16.9753C1.13831 15.0329 0.0471191 12.3986 0.0471191 9.6517C0.0471191 5.4553 2.45782 1.69282 6.19039 0.0682748C6.32194 0.0109425 6.4677 -0.00543792 6.6087 0.0212681C6.74969 0.0479742 6.87937 0.116528 6.98084 0.217998C7.08231 0.319467 7.15086 0.449147 7.17757 0.590139C7.20427 0.731132 7.18789 0.876899 7.13056 1.00845C6.70199 1.99237 6.47565 3.25263 6.47565 4.65173C6.47565 9.57492 10.481 13.5803 15.4042 13.5803C16.8033 13.5803 18.0635 13.3539 19.0475 12.9253C19.179 12.868 19.3248 12.8516 19.4658 12.8783C19.6068 12.905 19.7364 12.9736 19.8379 13.0751C19.9394 13.1765 20.0079 13.3062 20.0346 13.4472C20.0613 13.5882 20.045 13.734 19.9876 13.8655C18.3631 17.5981 14.6006 20.0088 10.4042 20.0088Z"/>
</svg>
