<svg viewBox="0 0 50 50" fill="none" xmlns="http://www.w3.org/2000/svg">
   <path d="M0 25C0 38.8071 11 50 25 50C38.8071 50 50 38.8071 50 25C50 11.1929 38.8071 0 25 0C11.1929 0 0 11.1929 0 25Z"
      fill="url(#paint0_linear_347_272)" />
   <path
      d="M33.5686 20.5586C33.5686 25.2853 29.5084 29.1171 24.5 29.1171C19.4915 29.1171 15.4313 25.2853 15.4313 20.5586C15.4313 15.8318 19.4915 12 24.5 12C29.5084 12 33.5686 15.8318 33.5686 20.5586Z"
      fill="white" />
   <path
      d="M25 50C14 50 7.65061 43 7.65061 43C8.58032 40.8817 9.7006 39.2756 11.4185 37.6543C13.1364 36.033 15.1758 34.747 17.4203 33.8696C19.6648 32.9921 22.0705 32.5405 24.5 32.5405C26.9294 32.5405 29.3351 32.9921 31.5796 33.8696C33.8241 34.747 35.8636 36.033 37.5814 37.6543C39.2993 39.2756 40.8857 41.3817 41.8154 43.5C38.5 46.5 35.2531 48 33 48.6926C32 49 28.852 50 25 50Z"
      fill="white" />
   <defs>
      <linearGradient id="paint0_linear_347_272" x1="0" y1="0" x2="50" y2="50" gradientUnits="userSpaceOnUse">
         <stop offset="0.4" stop-color="#B14AF3" />
         <stop offset="1" stop-color="#C82CCB" />
      </linearGradient>
   </defs>
</svg>