<svg viewBox="0 0 29 29" fill="none" stroke-width="0" xmlns="http://www.w3.org/2000/svg">
<path d="M27.7218 26.2618L21.2218 19.7618H21.1518C23.1552 17.3995 24.1677 14.3541 23.9773 11.2625C23.7869 8.1709 22.4085 5.27267 20.1304 3.17406C17.8522 1.07545 14.8508 -0.0609677 11.754 0.00252412C8.65724 0.066016 5.70494 1.3245 3.51472 3.51472C1.3245 5.70494 0.066016 8.65724 0.00252412 11.754C-0.0609677 14.8508 1.07545 17.8522 3.17406 20.1304C5.27267 22.4085 8.1709 23.7869 11.2625 23.9773C14.3541 24.1677 17.3995 23.1552 19.7618 21.1518C19.7618 21.1518 19.7618 21.2018 19.7618 21.2218L26.2618 27.7218C26.3547 27.8155 26.4653 27.8899 26.5872 27.9407C26.7091 27.9914 26.8398 28.0176 26.9718 28.0176C27.1038 28.0176 27.2345 27.9914 27.3563 27.9407C27.4782 27.8899 27.5888 27.8155 27.6818 27.7218C27.7843 27.631 27.8671 27.5201 27.925 27.3961C27.9829 27.272 28.0148 27.1373 28.0185 27.0005C28.0223 26.8636 27.9978 26.7274 27.9468 26.6003C27.8958 26.4732 27.8192 26.358 27.7218 26.2618ZM12.0118 21.9718C10.034 21.9718 8.10056 21.3853 6.45607 20.2865C4.81158 19.1877 3.52985 17.6259 2.77298 15.7986C2.0161 13.9713 1.81807 11.9607 2.20392 10.0209C2.58977 8.08106 3.54218 6.29923 4.94071 4.90071C6.33923 3.50218 8.12106 2.54977 10.0609 2.16392C12.0007 1.77807 14.0113 1.9761 15.8386 2.73298C17.6659 3.48985 19.2277 4.77158 20.3265 6.41607C21.4253 8.06056 22.0118 9.99396 22.0118 11.9718C22.0118 13.285 21.7531 14.5854 21.2506 15.7986C20.748 17.0119 20.0114 18.1143 19.0828 19.0428C18.1543 19.9714 17.0519 20.708 15.8386 21.2106C14.6254 21.7131 13.325 21.9718 12.0118 21.9718Z" />
</svg>
