<svg width="23" height="22" viewBox="0 0 23 22" fill="none" xmlns="http://www.w3.org/2000/svg">
<path d="M11.066 16.3934C14.0399 16.3934 16.4507 13.9826 16.4507 11.0088C16.4507 8.03495 14.0399 5.62417 11.066 5.62417C8.0922 5.62417 5.68142 8.03495 5.68142 11.0088C5.68142 13.9826 8.0922 16.3934 11.066 16.3934Z" fill="white"/>
<path d="M11.066 1.00879V3.31648M11.066 18.7011V21.0088M21.066 11.0088H18.7583M3.37373 11.0088H1.06604M18.1368 3.93802L16.5053 5.56956M5.62681 16.448L3.99527 18.0796M18.1368 18.0796L16.5053 16.448M5.62681 5.56956L3.99527 3.93802M16.4507 11.0088C16.4507 13.9826 14.0399 16.3934 11.066 16.3934C8.0922 16.3934 5.68142 13.9826 5.68142 11.0088C5.68142 8.03495 8.0922 5.62417 11.066 5.62417C14.0399 5.62417 16.4507 8.03495 16.4507 11.0088Z" stroke-width="2" stroke-miterlimit="10" stroke-linecap="round"/>
</svg>
