<svg viewBox="0 0 22 24" fill="none" xmlns="http://www.w3.org/2000/svg">
<path d="M1.16028 4.67546H21.1603M13.8876 10.1755V17.5088M8.43301 10.1755V17.5088M2.97846 4.67546V22.0921C2.97846 22.3352 3.07424 22.5684 3.24473 22.7403C3.41521 22.9122 3.64644 23.0088 3.88755 23.0088H18.433C18.6741 23.0088 18.9053 22.9122 19.0758 22.7403C19.2463 22.5684 19.3421 22.3352 19.3421 22.0921V4.67546M6.61482 4.67546V2.84212C6.61482 2.35589 6.80638 1.88958 7.14736 1.54576C7.48833 1.20194 7.95079 1.00879 8.43301 1.00879H13.8876C14.3698 1.00879 14.8322 1.20194 15.1732 1.54576C15.5142 1.88958 15.7057 2.35589 15.7057 2.84212V4.67546" stroke-linecap="round" stroke-linejoin="round"/>
</svg>
