<svg width="30" height="26" viewBox="0 0 30 26" fill="none" xmlns="http://www.w3.org/2000/svg">
<path d="M1.40625 16.5078C1.6466 16.5078 1.87711 16.6025 2.04707 16.7711C2.21702 16.9398 2.3125 17.1685 2.3125 17.407V21.9031C2.3125 22.3801 2.50346 22.8375 2.84337 23.1748C3.18328 23.5121 3.64429 23.7016 4.125 23.7016H25.875C26.3557 23.7016 26.8167 23.5121 27.1566 23.1748C27.4965 22.8375 27.6875 22.3801 27.6875 21.9031V17.407C27.6875 17.1685 27.783 16.9398 27.9529 16.7711C28.1229 16.6025 28.3534 16.5078 28.5938 16.5078C28.8341 16.5078 29.0646 16.6025 29.2346 16.7711C29.4045 16.9398 29.5 17.1685 29.5 17.407V21.9031C29.5 22.8571 29.1181 23.7719 28.4383 24.4465C27.7584 25.121 26.8364 25.5 25.875 25.5H4.125C3.16359 25.5 2.24156 25.121 1.56174 24.4465C0.881919 23.7719 0.5 22.8571 0.5 21.9031V17.407C0.5 17.1685 0.59548 16.9398 0.765435 16.7711C0.935389 16.6025 1.1659 16.5078 1.40625 16.5078Z"/>
<path d="M14.3584 0.764181C14.4426 0.680439 14.5426 0.613999 14.6527 0.568667C14.7628 0.523334 14.8808 0.5 15 0.5C15.1192 0.5 15.2372 0.523334 15.3473 0.568667C15.4574 0.613999 15.5574 0.680439 15.6416 0.764181L21.0791 6.15952C21.2493 6.32837 21.3449 6.55738 21.3449 6.79617C21.3449 7.03496 21.2493 7.26397 21.0791 7.43282C20.909 7.60167 20.6782 7.69653 20.4375 7.69653C20.1968 7.69653 19.966 7.60167 19.7959 7.43282L15.9062 3.57155V19.3853C15.9062 19.6238 15.8108 19.8525 15.6408 20.0211C15.4709 20.1898 15.2404 20.2845 15 20.2845C14.7596 20.2845 14.5291 20.1898 14.3592 20.0211C14.1892 19.8525 14.0938 19.6238 14.0938 19.3853V3.57155L10.2041 7.43282C10.1199 7.51642 10.0198 7.58274 9.90975 7.62799C9.79965 7.67324 9.68166 7.69653 9.5625 7.69653C9.44334 7.69653 9.32535 7.67324 9.21525 7.62799C9.10516 7.58274 9.00513 7.51642 8.92087 7.43282C8.83662 7.34921 8.76978 7.24996 8.72418 7.14072C8.67858 7.03148 8.6551 6.9144 8.6551 6.79617C8.6551 6.67793 8.67858 6.56085 8.72418 6.45161C8.76978 6.34238 8.83662 6.24312 8.92087 6.15952L14.3584 0.764181Z"/>
</svg>
