<svg width="21" height="22" viewBox="0 0 21 22" fill="none" xmlns="http://www.w3.org/2000/svg">
<path d="M15.0057 5.23852C15.0057 7.85068 12.811 9.96825 10.1038 9.96825C7.39648 9.96825 5.2018 7.85068 5.2018 5.23852C5.2018 2.62636 7.39648 0.508789 10.1038 0.508789C12.811 0.508789 15.0057 2.62636 15.0057 5.23852Z" fill="white"/>
<path d="M0.10376 21.5088C0.10376 20.2417 0.362417 18.987 0.864964 17.8164C1.36751 16.6458 2.10411 15.5821 3.03269 14.6862C3.96128 13.7902 5.06367 13.0795 6.27693 12.5946C7.49018 12.1097 8.79054 11.8601 10.1038 11.8601C11.417 11.8601 12.7173 12.1097 13.9306 12.5946C15.1439 13.0795 16.2462 13.7902 17.1748 14.6862C18.1034 15.5821 18.84 16.6458 19.3426 17.8164C19.8451 18.987 20.1038 20.2417 20.1038 21.5088H0.10376Z" />
</svg>
